<?xml version="1.0" encoding="UTF-8"?>
<svg id="Ebene_2" data-name="Ebene 2" xmlns="http://www.w3.org/2000/svg" width="57.33148mm" height="57.98341mm" xmlns:xlink="http://www.w3.org/1999/xlink" viewBox="0 0 162.51443 164.36242">
  <defs>
    <linearGradient id="Unbenannter_Verlauf_3" data-name="Unbenannter Verlauf 3" x1="585.95239" y1="536.34757" x2="745.35238" y2="673.48755" gradientTransform="translate(-332.59375 -301.90216) scale(.56)" gradientUnits="userSpaceOnUse">
      <stop offset="0" stop-color="#5a9fd4"/>
      <stop offset="1" stop-color="#316a99"/>
    </linearGradient>
    <linearGradient id="Unbenannter_Verlauf_2" data-name="Unbenannter Verlauf 2" x1="807.78274" y1="756.20082" x2="750.86276" y2="675.67083" gradientTransform="translate(-332.59375 -301.90216) scale(.56)" gradientUnits="userSpaceOnUse">
      <stop offset="0" stop-color="#f3cf43"/>
      <stop offset="1" stop-color="#fbe676"/>
    </linearGradient>
  </defs>
  <g id="Ebene_1-2" data-name="Ebene 1">
    <path d="M80.25033.0023c-6.27715.00723-12.54257.54247-18.73,1.60001-16.59,2.92999-19.60001,9.06999-19.60001,20.38v14.94h39.2v5H27.25033c-11.39,0-21.37,6.85001-24.49001,19.88-3.60001,14.93001-3.75999,24.25,0,39.84001,2.78999,11.60999,9.44,19.88,20.84,19.88h13.48v-17.94003c0-12.94,11.2-24.35001,24.49001-24.35001h39.15999c10.90732-.08243,19.68262-8.99138,19.60019-19.8987-.00006-.0071-.00012-.01421-.00018-.0213V21.98229c0-10.62-9-18.61-19.60001-20.38C93.96063.49546,87.1098-.03976,80.25033.0023ZM59.05033,12.0023c4.12512-.06073,7.51843,3.2341,7.57916,7.35922s-3.2341,7.51842-7.35922,7.57916c-4.12512.06073-7.51843-3.2341-7.57916-7.35922-.00044-.02972-.0007-.05943-.00078-.08916-.01663-4.10124,3.28882-7.44247,7.39-7.47l-.03-.02Z" style="fill: url(#Unbenannter_Verlauf_3);"/>
    <path d="M125.20034,41.90229v17.41c0,13.5-11.44,24.86-24.48999,24.86h-39.16002c-10.73,0-19.60001,9.17999-19.60001,19.92001v37.35999c0,10.62,9.24001,16.87,19.60001,19.92001,12.41,3.64999,24.31001,4.31,39.15999,0,9.87-2.85999,19.60001-8.60999,19.60001-19.92001v-15h-39.16v-5h58.76001c11.39001,0,15.64001-7.95001,19.60001-19.88,4.09-12.28,3.92001-24.09,0-39.84-2.82001-11.34-8.19-19.88-19.60001-19.88l-14.70999.05ZM103.20034,136.44229c4.12512-.06076,7.51843,3.23407,7.57919,7.35919.06073,4.12512-3.2341,7.51843-7.35922,7.57919-4.12512.06073-7.51843-3.2341-7.57916-7.35919-.00064-.04306-.00092-.08612-.00079-.12918-.02222-4.07532,3.25479-7.40152,7.32999-7.44l.03-.01001Z" style="fill: url(#Unbenannter_Verlauf_2);"/>
  </g>
</svg>